# AST/ASF file generated using VICON BodyLanguage
# -----------------------------------------------
:version 1.10
:name VICON
:units
  mass 1.0
  length 0.45
  angle deg
:documentation
   .ast/.asf automatically generated from VICON data using
   VICON BodyBuilder and BodyLanguage model FoxedUp or BRILLIANT.MOD
:root
   order TX TY TZ RX RY RZ
   axis XYZ
   position 0 0 0  
   orientation 0 0 0 
:bonedata
  begin
     id 1 
     name lhipjoint
     direction 0.653368 -0.678499 0.335782 
     length 2.51848 
     axis 0 0 0  XYZ
  end
  begin
     id 2 
     name lfemur
     direction 0.34202 -0.939693 0  
     length 6.57749  
     axis 0 0 20  XYZ
    dof rx ry rz
    limits (-160.0 20.0)
           (-70.0 70.0)
           (-60.0 70.0)
  end
  begin
     id 3 
     name ltibia
     direction 0.34202 -0.939693 0   
     length 7.94618   
     axis 0 0 20   XYZ
    dof rx
    limits (-10.0 170.0)
  end
  begin
     id 4 
     name lfoot
     direction 0.0811271 -0.222895 0.971461   
     length 2.31339   
     axis -90 7.62852e-016 20   XYZ
    dof rx rz
    limits (-45.0 90.0)
           (-70.0 20.0)
  end
  begin
     id 5 
     name ltoes
     direction 1.53568e-011 -4.21885e-011 1   
     length 1.15935   
     axis -90 7.62852e-016 20   XYZ
    dof rx
    limits (-90.0 20.0)
  end
  begin
     id 6 
     name rhipjoint
     direction -0.640058 -0.688614 0.340788   
     length 2.48149  
     axis 0 0 0  XYZ 
  end
  begin
     id 7 
     name rfemur
     direction -0.34202 -0.939693 0   
     length 6.57875   
     axis 0 0 -20   XYZ
    dof rx ry rz
    limits (-160.0 20.0)
           (-70.0 70.0)
           (-70.0 60.0)
  end
  begin
     id 8 
     name rtibia
     direction -0.34202 -0.939693 0   
     length 7.977   
     axis 0 0 -20   XYZ
    dof rx
    limits (-10.0 170.0)
 end
 begin
     id 9 
     name rfoot
     direction -0.0979793 -0.269196 0.958089   
     length 2.19857  
     axis -90 -7.62852e-016 -20   XYZ
    dof rx rz
    limits (-45.0 90.0)
           (-20.0 70.0)
  end
  begin
     id 10 
     name rtoes
     direction -1.53556e-011 -4.21868e-011 1   
     length 1.09838   
     axis -90 -7.62852e-016 -20   XYZ
    dof rx
    limits (-90.0 20.0)
  end
  begin
     id 11 
     name lowerback
     direction 0.0149039 0.998517 -0.0523597   
     length 2.10809   
     axis 0 0 0   XYZ
    dof rx ry rz
    limits (-20.0 45.0)
           (-30.0 30.0)
           (-30.0 30.0)
  end
  begin
     id 12 
     name upperback
     direction -0.00882659 0.999418 -0.0329624   
     length 2.1102   
     axis 0 0 0   XYZ
    dof rx ry rz
    limits (-20.0 45.0)
           (-30.0 30.0)
           (-30.0 30.0)
  end
  begin
     id 13 
     name thorax
     direction -0.0165585 0.999826 -0.0085833   
     length 2.11039   
     axis 0 0 0   XYZ
    dof rx ry rz
    limits (-20.0 45.0)
           (-30.0 30.0)
           (-30.0 30.0)
  end
  begin
     id 14 
     name lowerneck
     direction -0.0130877 0.999911 0.00260353   
     length 1.73253   
     axis 0 0 0   XYZ
    dof rx ry rz
    limits (-20.0 45.0)
           (-30.0 30.0)
           (-30.0 30.0)
  end
  begin
     id 15 
     name upperneck
     direction -0.0348454 0.928205 -0.370435   
     length 1.66692   
     axis 0 0 0   XYZ
    dof rx ry rz
    limits (-20.0 45.0)
           (-30.0 30.0)
           (-30.0 30.0)
  end
  begin
     id 16
     name head
     direction -0.00807754 0.992494 -0.122026  
     length 1.72765  
     axis 0 0 0   XYZ
    dof rx ry rz
    limits (-20.0 45.0)
           (-30.0 30.0)
           (-30.0 30.0)
  end
  begin
     id 17 
     name lclavicle
     direction 0.987582 0.144023 0.0627671  
     length 3.49235  
     axis 0 0 0   XYZ
    dof ry rz
    limits (-20.0 10.0)
           (0.0 20.0)
  end
  begin
     id 18 
     name lhumerus
     direction 1 -4.48958e-011 -1.45183e-018   
     length 5.41917   
     axis 180 -30 -90   XYZ
    dof rx ry rz
    limits (-60.0 90.0)
           (-90.0 90.0)
           (-90.0 90.0)
  end
  begin
     id 19
     name lradius
     direction 1 -4.48999e-011 5.75106e-027   
     length 2.44373   
     axis 180 -30 -90   XYZ
    dof rx
    limits (-10.0 170.0)
  end
  begin
     id 20
     name lwrist
     direction 1 -4.48987e-011 1.53461e-026   
     length 1.22186   
     axis -1.09697e-014 90 90   XYZ
    dof ry
    limits (-180.0 0.0)
 end
  begin
     id 21 
     name lhand
     direction 1 -4.48881e-011 3.06923e-026   
     length 0.727502   
     axis -1.95843e-014 90 90   XYZ
    dof rx rz
    limits (-90.0 90.0)
           (-45.0 45.0)
  end
  begin
     id 22 
     name lfingers
     direction 1 -4.48907e-011 6.13845e-026   
     length 0.586531   
     axis -3.91686e-014 90 90   XYZ
    dof rx
    limits (0.0 90.0)
  end
  begin
     id 23
     name lthumb
     direction 0.707107 -6.3487e-011 0.707107   
     length 0.842145   
     axis -90 45 2.85299e-015   XYZ
    dof rx rz
    limits (-45.0 45.0)
           (-45.0 45.0)
  end
  begin
     id 24 
     name rclavicle
     direction -0.980998 0.169556 0.0943023   
     length 3.29272  
     axis 0 0 0   XYZ 
    dof ry rz
    limits (-10.0 20.0)
           (-20.0 0.0)
  end
  begin
     id 25 
     name rhumerus
     direction -1 -1.83355e-005 2.45537e-005  
     length 5.58976   
     axis 180 30 90   XYZ
    dof rx ry rz
    limits (-90.0 60.0)
           (-90.0 90.0)
           (-90.0 90.0)
  end
  begin
     id 26 
     name rradius
     direction -1 -4.48967e-011 5.97228e-027   
     length 2.4806   
     axis 180 30 90   XYZ
    dof rx
    limits (-10.0 170.0)
  end
  begin
     id 27 
     name rwrist
     direction -1 -4.48963e-011 1.53461e-026   
     length 1.2403   
     axis -1.09697e-014 -90 -90   XYZ
    dof ry
    limits (-180.0 0.0)
  end
  begin
     id 28
     name rhand
     direction -1 -4.48881e-011 3.06923e-026   
     length 0.816009   
     axis -1.95843e-014 -90 -90   XYZ
    dof rx rz
    limits (-90.0 90.0)
           (-45.0 45.0)
  end
  begin
     id 29
     name rfingers
     direction -1 -4.49018e-011 6.13845e-026   
     length 0.657887   
     axis -3.91686e-014 -90 -90   XYZ
    dof rx
    limits (0.0 90.0)
  end
  begin
     id 30
     name rthumb
     direction -0.707107 -6.34872e-011 0.707107   
     length 0.944599   
     axis -90 -45 -2.85299e-015   XYZ
    dof rx rz
    limits (-45.0 45.0)
           (-45.0 45.0)
  end
:hierarchy
  begin
    root lhipjoint rhipjoint lowerback
    lhipjoint lfemur
    lfemur ltibia
    ltibia lfoot
    lfoot ltoes
    rhipjoint rfemur
    rfemur rtibia
    rtibia rfoot
    rfoot rtoes
    lowerback upperback
    upperback thorax
    thorax lowerneck lclavicle rclavicle
    lowerneck upperneck
    upperneck head
    lclavicle lhumerus
    lhumerus lradius
    lradius lwrist
    lwrist lhand lthumb
    lhand lfingers
    rclavicle rhumerus
    rhumerus rradius
    rradius rwrist
    rwrist rhand rthumb
    rhand rfingers
  end

#!OML:ASF F:\VICON\USERDATA\INSTALL\rory3\rory3.ASF
:FULLY-SPECIFIED
:DEGREES
94
root 0.11189 16.4416 -23.3609 10.2435 -0.358616 -4.01889
lowerback -0.940208 1.38925 6.77567
upperback -2.06281 1.86941 0.950348
thorax -1.41925 0.842644 -2.81682
lowerneck -20.1864 -0.370264 -0.809185
upperneck 33.2774 0.945341 -3.12446
head 14.9905 -0.151169 -0.984105
rclavicle 8.59744e-015 3.18055e-015
rhumerus -28.5174 -3.10528 -77.3069
rradius 33.6732
rwrist -16.7098
rhand -7.29499 10.2235
rfingers 7.12502
rthumb 18.5871 -18.9085
lclavicle 8.59744e-015 3.18055e-015
lhumerus -62.6366 34.6478 46.0311
lradius 21.5132
lwrist -13.7279
lhand 2.39853 19.9476
lfingers 7.12502
lthumb 27.8857 47.8976
rfemur -12.8115 15.5017 28.9828
rtibia 25.5253
rfoot -23.5275 -23.5075
rtoes 0.733574
lfemur -41.4159 -2.15897 -18.4725
ltibia 40.8711
lfoot -18.3539 17.0082
ltoes -16.5
95
root 0.108557 16.4513 -23.2365 10.3181 -0.143224 -4.02377
lowerback -1.28306 1.42005 6.86943
upperback -2.02343 1.87797 0.823257
thorax -1.17836 0.853297 -2.99027
lowerneck -19.428 -0.443074 -0.793324
upperneck 32.9245 0.817664 -3.16142
head 14.6532 -0.198856 -1.01398
rclavicle 6.01324e-015 -1.98785e-016
rhumerus -28.5743 -3.16674 -77.3593
rradius 34.2526
rwrist -17.0902
rhand -7.0459 10.5396
rfingers 7.12502
rthumb 18.8267 -18.5693
lclavicle 6.01324e-015 -1.98785e-016
lhumerus -62.0038 33.7229 47.0518
lradius 22.1724
lwrist -12.6852
lhand 2.61695 20.5036
lfingers 7.12502
lthumb 28.0945 48.4195
rfemur -11.9571 15.469 29.1343
rtibia 24.5974
rfoot -23.4565 -23.8054
rtoes 0.735373
lfemur -41.618 -2.45263 -18.2666
ltibia 38.7193
lfoot -17.8261 16.9397
ltoes -14.3622
96
root 0.100681 16.4607 -23.1164 10.3557 0.236347 -4.02103
lowerback -1.41099 1.39048 6.8748
upperback -1.9209 1.82206 0.714848
thorax -1.00251 0.832688 -3.10081
lowerneck -19.2994 -0.496513 -0.816978
upperneck 32.7565 0.68985 -3.02177
head 14.5439 -0.233267 -0.971291
rclavicle -2.62147e-015 -5.96354e-015
rhumerus -28.348 -3.16415 -77.4887
rradius 34.5914
rwrist -17.4002
rhand -7.11057 10.6743
rfingers 7.12502
rthumb 18.7645 -18.4407
lclavicle -2.62147e-015 -5.96354e-015
lhumerus -61.4009 33.4669 47.3586
lradius 22.3833
lwrist -12.4719
lhand 2.73129 20.5588
lfingers 7.12502
lthumb 28.2038 48.4567
rfemur -10.9861 15.445 29.3595
rtibia 23.5873
rfoot -23.31 -24.2565
rtoes 0.998165
lfemur -41.7629 -2.86774 -17.9977
ltibia 36.5974
lfoot -17.3262 16.2425
ltoes -10.2912
97
root 0.103862 16.4707 -22.9858 10.3517 0.431554 -4.18396
lowerback -1.44893 1.28669 7.01305
upperback -1.63013 1.66609 0.755022
thorax -0.694405 0.77033 -3.13348
lowerneck -20.3792 -0.393914 -0.889827
upperneck 33.0242 0.874632 -2.94611
head 14.9137 -0.163856 -0.905403
rclavicle 5.23052e-015 1.45113e-014
rhumerus -27.5694 -2.50142 -77.7952
rradius 34.8584
rwrist -17.6866
rhand -7.39677 10.7347
rfingers 7.12502
rthumb 18.4892 -18.4066
lclavicle 5.23052e-015 1.45113e-014
lhumerus -60.9672 34.0042 47.3926
lradius 22.572
lwrist -12.3256
lhand 2.68308 20.6419
lfingers 7.12502
lthumb 28.1577 48.5474
rfemur -9.86489 15.3183 29.7069
rtibia 22.4509
rfoot -22.7169 -24.4629
rtoes 1.1392
lfemur -41.8544 -3.18824 -17.5847
ltibia 34.5955
lfoot -16.6118 16.4231
ltoes -8.22692
98
root 0.104114 16.4823 -22.8571 10.2955 0.634121 -4.17357
lowerback -1.61165 1.20818 7.07192
upperback -1.71322 1.55065 0.70283
thorax -0.698581 0.709712 -3.21943
lowerneck -19.4489 -0.392702 -1.18448
upperneck 32.8237 0.874608 -2.71566
head 14.6089 -0.159241 -0.750398
rclavicle -6.63444e-015 2.27608e-014
rhumerus -27.8867 -1.81498 -78.0032
rradius 35.4335
rwrist -18.0881
rhand -7.04049 11.4095
rfingers 7.12502
rthumb 18.8319 -17.6989
lclavicle -6.63444e-015 2.27608e-014
lhumerus -61.0748 33.459 47.5441
lradius 22.9882
lwrist -11.6096
lhand 2.52914 20.515
lfingers 7.12502
lthumb 28.0105 48.4446
rfemur -8.62511 15.2326 29.8968
rtibia 21.2003
rfoot -22.1258 -24.8394
rtoes 0.824041
lfemur -41.9101 -3.45731 -17.3817
ltibia 32.6819
lfoot -15.4048 16.4297
ltoes -6.12166
99
root 0.10315 16.4853 -22.7288 10.243 0.721126 -4.31153
lowerback -1.001 1.31516 7.20864
upperback -1.97254 1.75701 0.552316
thorax -1.27995 0.784273 -3.46716
lowerneck -19.6166 -0.54 -1.03152
upperneck 33.1957 0.606079 -2.68446
head 14.8128 -0.253478 -0.819074
rclavicle -1.67352e-014 -7.95139e-015
rhumerus -28.3229 -1.84124 -78.1634
rradius 35.8687
rwrist -18.2226
rhand -6.88334 11.5187
rfingers 7.12502
rthumb 18.983 -17.575
lclavicle -1.67352e-014 -7.95139e-015
lhumerus -60.724 32.6833 47.7702
lradius 23.4071
lwrist -11.2289
lhand 2.54092 20.5365
lfingers 7.12502
lthumb 28.0218 48.4643
rfemur -7.31148 15.2491 30.2408
rtibia 19.8183
rfoot -21.5863 -25.1658
rtoes 0.323408
lfemur -42.0108 -3.52572 -17.0414
ltibia 30.9302
lfoot -13.9874 16.4891
ltoes -4.91295
100
root 0.104435 16.4857 -22.5932 10.2597 0.670843 -4.60397
lowerback -1.1331 1.31355 7.38504
upperback -1.57971 1.72418 0.609012
thorax -0.799701 0.792678 -3.49829
lowerneck -20.9033 -0.465679 -0.971443
upperneck 33.3918 0.786148 -2.83596
head 15.2024 -0.202604 -0.871005
rclavicle 1.74993e-014 7.10655e-015
rhumerus -27.4067 -1.40089 -78.3718
rradius 36.0238
rwrist -18.2132
rhand -7.06656 11.4626
rfingers 7.12502
rthumb 18.8068 -17.6483
lclavicle 1.74993e-014 7.10655e-015
lhumerus -59.9466 33.3979 47.928
lradius 23.6201
lwrist -10.9269
lhand 2.30579 20.6417
lfingers 7.12502
lthumb 27.797 48.606
rfemur -6.05133 15.2816 30.682
rtibia 18.4291
rfoot -21.1004 -25.2005
rtoes 0.100817
lfemur -42.1478 -3.44276 -16.5501
ltibia 29.3017
lfoot -12.6909 16.6836
ltoes -4.70229
101
root 0.107891 16.4861 -22.4541 10.2637 0.726272 -4.91433
lowerback -1.24997 1.40703 7.80601
upperback -1.63748 1.83822 0.538144
thorax -0.767369 0.844736 -3.80314
lowerneck -20.4294 -0.501832 -0.948125
upperneck 33.1881 0.687376 -2.78116
head 14.9963 -0.227636 -0.864017
rclavicle -6.67482e-015 -6.95746e-016
rhumerus -27.7283 -1.47842 -78.4257
rradius 36.4088
rwrist -18.1514
rhand -6.60395 11.8803
rfingers 7.12502
rthumb 19.2517 -17.1868
lclavicle -6.67482e-015 -6.95746e-016
lhumerus -59.808 33.1354 47.6625
lradius 23.8448
lwrist -10.5361
lhand 2.44344 20.1562
lfingers 7.12502
lthumb 27.9286 48.0992
rfemur -4.77031 14.9609 31.1288
rtibia 16.9951
rfoot -20.5245 -25.1132
rtoes -0.724419
lfemur -42.2895 -3.51987 -15.9801
ltibia 27.8531
lfoot -11.8562 16.5858
ltoes -3.0501
102
root 0.117053 16.4847 -22.3134 10.2356 0.832817 -4.83293
lowerback -1.56634 1.5642 7.9713
upperback -1.47299 2.00697 0.222887
thorax -0.38225 0.945517 -4.2079
lowerneck -20.2358 -0.642403 -0.822199
upperneck 32.9177 0.35535 -2.60466
head 14.8199 -0.322236 -0.867858
rclavicle -9.79014e-015 -8.44835e-016
rhumerus -27.7678 -1.86942 -78.6363
rradius 36.7589
rwrist -18.0499
rhand -6.51763 11.9169
rfingers 7.12502
rthumb 19.3347 -17.1419
lclavicle -9.79014e-015 -8.44835e-016
lhumerus -58.9327 32.6724 48.046
lradius 24.1548
lwrist -9.98912
lhand 2.26457 19.687
lfingers 7.12502
lthumb 27.7576 47.6576
rfemur -3.40509 14.3652 31.1181
rtibia 15.5539
rfoot -20.037 -24.7738
rtoes -0.115408
lfemur -42.385 -3.70003 -15.8602
ltibia 26.5883
lfoot -11.9133 16.2445
ltoes -0.0890835
103
root 0.120648 16.482 -22.1753 10.0837 0.622266 -4.84131
lowerback -1.51774 1.76889 7.98763
upperback -1.355 2.27804 0.013182
thorax -0.242434 1.08912 -4.42775
lowerneck -20.1638 -0.761313 -0.70674
upperneck 32.7939 0.0948687 -2.50221
head 14.7414 -0.401435 -0.890499
rclavicle -3.55949e-014 -6.95746e-015
rhumerus -27.8371 -1.86516 -78.8728
rradius 37.1099
rwrist -18.1672
rhand -6.8035 11.6737
rfingers 7.12502
rthumb 19.0598 -17.4124
lclavicle -3.55949e-014 -6.95746e-015
lhumerus -58.0021 32.128 48.7873
lradius 24.6668
lwrist -9.19685
lhand 1.96096 19.9894
lfingers 7.12502
lthumb 27.4673 48.0065
rfemur -1.91021 14.2326 31.2262
rtibia 14.1543
rfoot -19.6365 -24.5226
rtoes 0.558296
lfemur -42.3262 -4.1375 -15.313
ltibia 25.5565
lfoot -11.7215 16.3572
ltoes 0.146123
104
root 0.122642 16.4779 -22.0425 10.1281 0.754509 -4.91489
lowerback -1.26964 1.38493 7.74369
upperback -1.08169 1.77927 0.306138
thorax -0.181623 0.851969 -4.00061
lowerneck -21.9644 -0.472677 -1.15833
upperneck 33.2349 0.774321 -2.56994
head 15.3693 -0.198472 -0.732633
rclavicle 1.42255e-014 5.31749e-015
rhumerus -26.9088 -0.236537 -79.1036
rradius 37.4042
rwrist -18.5617
rhand -6.64637 11.6367
rfingers 7.12502
rthumb 19.2109 -17.4345
lclavicle 1.42255e-014 5.31749e-015
lhumerus -58.0331 33.44 48.7371
lradius 25.1587
lwrist -8.66433
lhand 1.55701 20.3464
lfingers 7.12502
lthumb 27.0809 48.4243
rfemur -0.641725 14.3249 31.4729
rtibia 12.6754
rfoot -19.2807 -24.6702
rtoes 0.344042
lfemur -42.6056 -5.19459 -14.3665
ltibia 24.7223
lfoot -11.9162 16.84
ltoes -0.203542
105
root 0.126613 16.4691 -21.9044 10.123 0.68298 -5.01478
lowerback -1.21454 1.61337 7.76553
upperback -1.27096 2.09725 0.152302
thorax -0.362245 0.998379 -4.17095
lowerneck -21.1755 -0.556493 -0.960247
upperneck 33.0274 0.53082 -2.5214
head 15.0868 -0.25999 -0.784761
rclavicle 1.50455e-014 -1.89839e-014
rhumerus -27.7118 -0.235193 -79.2109
rradius 37.9256
rwrist -18.7223
rhand -6.60258 11.7737
rfingers 7.12502
rthumb 19.253 -17.2932
lclavicle 1.50455e-014 -1.89839e-014
lhumerus -57.8525 33.0479 48.4459
lradius 25.1885
lwrist -8.71304
lhand 1.29972 19.411
lfingers 7.12502
lthumb 26.8347 47.5269
rfemur 0.759262 14.289 31.6754
rtibia 11.0636
rfoot -18.6157 -24.5412
rtoes 2.14885
lfemur -42.8517 -6.46392 -13.1702
ltibia 24.1908
lfoot -12.7102 17.7052
ltoes 0.0521536
106
root 0.131018 16.4636 -21.7639 10.0484 0.537293 -5.19077
lowerback -1.45504 1.9985 7.94291
upperback -1.53988 2.59874 -0.0836573
thorax -0.423489 1.2371 -4.50162
lowerneck -19.1345 -0.76942 -0.566813
upperneck 32.3945 0.0132439 -2.51134
head 14.3273 -0.411311 -0.917974
rclavicle 1.44119e-015 -5.56597e-015
rhumerus -28.8433 -0.861497 -79.2574
rradius 38.0983
rwrist -18.343
rhand -6.61484 12.0029
rfingers 7.12502
rthumb 19.2412 -17.0652
lclavicle 1.44119e-015 -5.56597e-015
lhumerus -57.0649 30.9346 49.935
lradius 26.214
lwrist -7.07056
lhand 0.960164 20.3624
lfingers 7.12502
lthumb 26.5097 48.5278
rfemur 2.33384 14.2851 31.9612
rtibia 9.34513
rfoot -17.6074 -24.4113
rtoes 0.737923
lfemur -43.0954 -7.99947 -11.6963
ltibia 23.9554
lfoot -13.9011 19.0017
ltoes 0.0171079
107
root 0.137226 16.4545 -21.6191 9.97505 0.425441 -5.39301
lowerback -0.573195 1.38033 7.6788
upperback -1.38225 1.85292 0.465112
thorax -0.88218 0.855595 -3.82172
lowerneck -21.7218 -0.346898 -1.61609
upperneck 33.2912 1.06581 -2.36162
head 15.3416 -0.104267 -0.508649
rclavicle 4.23163e-014 7.7526e-015
rhumerus -27.6815 1.36484 -79.4794
rradius 37.8813
rwrist -18.2044
rhand -6.4113 11.9042
rfingers 7.12502
rthumb 19.4369 -17.1443
lclavicle 4.23163e-014 7.7526e-015
lhumerus -57.8023 32.7344 49.6615
lradius 26.7435
lwrist -6.60459
lhand 0.480887 20.7557
lfingers 7.12502
lthumb 26.0509 48.9894
rfemur 4.0093 14.2468 32.2693
rtibia 7.48209
rfoot -16.5394 -24.312
rtoes 0.426723
lfemur -43.3503 -9.41827 -10.2782
ltibia 23.9551
lfoot -15.2405 20.2533
ltoes 0.846368
108
root 0.147764 16.4439 -21.4617 9.91484 0.261646 -5.477
lowerback -0.888491 1.96627 7.91464
upperback -1.56162 2.60954 -0.043313
thorax -0.765736 1.22879 -4.46573
lowerneck -20.2784 -0.871286 -1.00824
upperneck 32.9828 -0.0489741 -2.21456
head 14.8531 -0.460742 -0.749222
rclavicle -1.51076e-014 -6.95746e-015
rhumerus -28.7857 -0.119889 -79.6077
rradius 38.0377
rwrist -17.7281
rhand -6.30721 11.9061
rfingers 7.12502
rthumb 19.537 -17.1323
lclavicle -1.51076e-014 -6.95746e-015
lhumerus -56.5636 31.221 50.1753
lradius 26.8132
lwrist -6.22531
lhand -0.0927293 20.9766
lfingers 7.12502
lthumb 25.5016 49.29
rfemur 5.80185 14.2403 32.4202
rtibia 5.52055
rfoot -15.5666 -24.2122
rtoes -1.06999
lfemur -43.4226 -10.1624 -9.49844
ltibia 24.0762
lfoot -16.1742 20.9919
ltoes 0.912316
